ISO-10303-21;
HEADER;
FILE_DESCRIPTION((''),'2;1');
FILE_NAME('ferrum-os-massing.ifc','',(''),(''),'ferrum-os web-ifc export','','');
FILE_SCHEMA(('IFC4'));
ENDSEC;
DATA;
#1=IFCPERSON($,'Ferrum',$,$,$,$,$,$);
#2=IFCORGANIZATION($,'Ferrum OS',$,$,$);
#3=IFCPERSONANDORGANIZATION(#1,#2,$);
#4=IFCAPPLICATION(#2,'0.1','Ferrum OS DesignStudio IFC export','FERRUM_IFC_EXPORT');
#5=IFCOWNERHISTORY(#3,#4,$,.ADDED.,$,$,$,0);
#6=IFCCARTESIANPOINT((0.0000,0.0000,0.0000));
#7=IFCDIRECTION((0.0000,0.0000,1.0000));
#8=IFCDIRECTION((1.0000,0.0000,0.0000));
#9=IFCAXIS2PLACEMENT3D(#6,#7,#8);
#10=IFCGEOMETRICREPRESENTATIONCONTEXT($,'Model',3,1.0E-5,#9,$);
#11=IFCSIUNIT(*,.LENGTHUNIT.,$,.METRE.);
#12=IFCSIUNIT(*,.AREAUNIT.,$,.SQUARE_METRE.);
#13=IFCSIUNIT(*,.VOLUMEUNIT.,$,.CUBIC_METRE.);
#14=IFCUNITASSIGNMENT((#11,#12,#13));
#15=IFCPROJECT('0000000000000000000000',#5,'Ferrum OS massing export',$,$,$,$,(#10),#14);
#16=IFCLOCALPLACEMENT($,#9);
#17=IFCSITE('0000000000000000000000',#5,'Site',$,$,#16,$,$,.ELEMENT.,$,$,$,$,$);
#18=IFCRELAGGREGATES('0000000000000000000000',#5,$,$,#15,(#17));
#19=IFCLOCALPLACEMENT(#16,#9);
#20=IFCBUILDING('000000u000000000000000',#5,'Building',$,$,#19,$,$,.ELEMENT.,$,$,$);
#21=IFCRELAGGREGATES('0000000000000000000000',#5,$,$,#17,(#20));
#22=IFCCARTESIANPOINT((0.0000,0.0000,0.0000));
#23=IFCAXIS2PLACEMENT3D(#22,#7,#8);
#24=IFCLOCALPLACEMENT(#19,#23);
#25=IFCBUILDINGSTOREY('0000000000000000000000',#5,'Storey 1',$,$,#24,$,$,.ELEMENT.,0.0000);
#26=IFCCARTESIANPOINT((0.,0.));
#27=IFCAXIS2PLACEMENT2D(#26,$);
#28=IFCRECTANGLEPROFILEDEF(.AREA.,$,#27,20.0000,30.0000);
#29=IFCAXIS2PLACEMENT3D(#22,#7,#8);
#30=IFCEXTRUDEDAREASOLID(#28,#29,#7,0.1500);
#31=IFCSHAPEREPRESENTATION(#10,'Body','SweptSolid',(#30));
#32=IFCPRODUCTDEFINITIONSHAPE($,$,(#31));
#33=IFCSLAB('000000000000000000u000',#5,'Slab 1',$,$,#24,#32,$,.FLOOR.);
#34=IFCCARTESIANPOINT((0.,0.));
#35=IFCAXIS2PLACEMENT2D(#34,$);
#36=IFCRECTANGLEPROFILEDEF(.AREA.,$,#35,20.0000,30.0000);
#37=IFCAXIS2PLACEMENT3D(#22,#7,#8);
#38=IFCEXTRUDEDAREASOLID(#36,#37,#7,3.0000);
#39=IFCSHAPEREPRESENTATION(#10,'Body','SweptSolid',(#38));
#40=IFCPRODUCTDEFINITIONSHAPE($,$,(#39));
#41=IFCSPACE('0000u00000000000000000',#5,'Space 1',$,$,#24,#40,$,.ELEMENT.,.INTERNAL.,$);
#42=IFCCARTESIANPOINT((0.0000,29.7700,0.0000));
#43=IFCAXIS2PLACEMENT3D(#42,#7,#8);
#44=IFCLOCALPLACEMENT(#24,#43);
#45=IFCCARTESIANPOINT((0.,0.));
#46=IFCAXIS2PLACEMENT2D(#45,$);
#47=IFCRECTANGLEPROFILEDEF(.AREA.,$,#46,20.0000,0.2300);
#48=IFCAXIS2PLACEMENT3D(#42,#7,#8);
#49=IFCEXTRUDEDAREASOLID(#47,#48,#7,3.0000);
#50=IFCSHAPEREPRESENTATION(#10,'Body','SweptSolid',(#49));
#51=IFCPRODUCTDEFINITIONSHAPE($,$,(#50));
#52=IFCWALLSTANDARDCASE('0000000000000000000000',#5,'Wall North 1',$,$,#44,#51,$);
#53=IFCCARTESIANPOINT((0.0000,0.0000,0.0000));
#54=IFCAXIS2PLACEMENT3D(#53,#7,#8);
#55=IFCLOCALPLACEMENT(#24,#54);
#56=IFCCARTESIANPOINT((0.,0.));
#57=IFCAXIS2PLACEMENT2D(#56,$);
#58=IFCRECTANGLEPROFILEDEF(.AREA.,$,#57,20.0000,0.2300);
#59=IFCAXIS2PLACEMENT3D(#53,#7,#8);
#60=IFCEXTRUDEDAREASOLID(#58,#59,#7,3.0000);
#61=IFCSHAPEREPRESENTATION(#10,'Body','SweptSolid',(#60));
#62=IFCPRODUCTDEFINITIONSHAPE($,$,(#61));
#63=IFCWALLSTANDARDCASE('00000000000000000000v0',#5,'Wall South 1',$,$,#55,#62,$);
#64=IFCCARTESIANPOINT((19.7700,0.0000,0.0000));
#65=IFCAXIS2PLACEMENT3D(#64,#7,#8);
#66=IFCLOCALPLACEMENT(#24,#65);
#67=IFCCARTESIANPOINT((0.,0.));
#68=IFCAXIS2PLACEMENT2D(#67,$);
#69=IFCRECTANGLEPROFILEDEF(.AREA.,$,#68,0.2300,30.0000);
#70=IFCAXIS2PLACEMENT3D(#64,#7,#8);
#71=IFCEXTRUDEDAREASOLID(#69,#70,#7,3.0000);
#72=IFCSHAPEREPRESENTATION(#10,'Body','SweptSolid',(#71));
#73=IFCPRODUCTDEFINITIONSHAPE($,$,(#72));
#74=IFCWALLSTANDARDCASE('0000u00000000000v00000',#5,'Wall East 1',$,$,#66,#73,$);
#75=IFCCARTESIANPOINT((0.0000,0.0000,0.0000));
#76=IFCAXIS2PLACEMENT3D(#75,#7,#8);
#77=IFCLOCALPLACEMENT(#24,#76);
#78=IFCCARTESIANPOINT((0.,0.));
#79=IFCAXIS2PLACEMENT2D(#78,$);
#80=IFCRECTANGLEPROFILEDEF(.AREA.,$,#79,0.2300,30.0000);
#81=IFCAXIS2PLACEMENT3D(#75,#7,#8);
#82=IFCEXTRUDEDAREASOLID(#80,#81,#7,3.0000);
#83=IFCSHAPEREPRESENTATION(#10,'Body','SweptSolid',(#82));
#84=IFCPRODUCTDEFINITIONSHAPE($,$,(#83));
#85=IFCWALLSTANDARDCASE('00u0000000000000000000',#5,'Wall West 1',$,$,#77,#84,$);
#86=IFCCARTESIANPOINT((9.5500,0.0000,0.0000));
#87=IFCAXIS2PLACEMENT3D(#86,#7,#8);
#88=IFCLOCALPLACEMENT(#24,#87);
#89=IFCCARTESIANPOINT((0.,0.));
#90=IFCAXIS2PLACEMENT2D(#89,$);
#91=IFCRECTANGLEPROFILEDEF(.AREA.,$,#90,0.9000,0.2300);
#92=IFCAXIS2PLACEMENT3D(#86,#7,#8);
#93=IFCEXTRUDEDAREASOLID(#91,#92,#7,2.1000);
#94=IFCSHAPEREPRESENTATION(#10,'Body','SweptSolid',(#93));
#95=IFCPRODUCTDEFINITIONSHAPE($,$,(#94));
#96=IFCOPENINGELEMENT('0000000000000000000000',#5,'Door opening 1',$,$,#88,#95,$);
#97=IFCRELVOIDSELEMENT('0u000u0000000000000000',#5,$,$,#63,#96);
#98=IFCRELCONTAINEDINSPATIALSTRUCTURE('0000000000000000000000',#5,$,$,(#33,#41,#52,#63,#74,#85,#96),#25);
#99=IFCCARTESIANPOINT((0.0000,0.0000,3.0000));
#100=IFCAXIS2PLACEMENT3D(#99,#7,#8);
#101=IFCLOCALPLACEMENT(#19,#100);
#102=IFCBUILDINGSTOREY('0000000000000000000000',#5,'Storey 2',$,$,#101,$,$,.ELEMENT.,3.0000);
#103=IFCCARTESIANPOINT((0.,0.));
#104=IFCAXIS2PLACEMENT2D(#103,$);
#105=IFCRECTANGLEPROFILEDEF(.AREA.,$,#104,20.0000,30.0000);
#106=IFCAXIS2PLACEMENT3D(#99,#7,#8);
#107=IFCEXTRUDEDAREASOLID(#105,#106,#7,0.1500);
#108=IFCSHAPEREPRESENTATION(#10,'Body','SweptSolid',(#107));
#109=IFCPRODUCTDEFINITIONSHAPE($,$,(#108));
#110=IFCSLAB('0u00000000000000000000',#5,'Slab 2',$,$,#101,#109,$,.FLOOR.);
#111=IFCCARTESIANPOINT((0.,0.));
#112=IFCAXIS2PLACEMENT2D(#111,$);
#113=IFCRECTANGLEPROFILEDEF(.AREA.,$,#112,20.0000,30.0000);
#114=IFCAXIS2PLACEMENT3D(#99,#7,#8);
#115=IFCEXTRUDEDAREASOLID(#113,#114,#7,3.0000);
#116=IFCSHAPEREPRESENTATION(#10,'Body','SweptSolid',(#115));
#117=IFCPRODUCTDEFINITIONSHAPE($,$,(#116));
#118=IFCSPACE('0000000000000000000000',#5,'Space 2',$,$,#101,#117,$,.ELEMENT.,.INTERNAL.,$);
#119=IFCCARTESIANPOINT((0.0000,29.7700,3.0000));
#120=IFCAXIS2PLACEMENT3D(#119,#7,#8);
#121=IFCLOCALPLACEMENT(#101,#120);
#122=IFCCARTESIANPOINT((0.,0.));
#123=IFCAXIS2PLACEMENT2D(#122,$);
#124=IFCRECTANGLEPROFILEDEF(.AREA.,$,#123,20.0000,0.2300);
#125=IFCAXIS2PLACEMENT3D(#119,#7,#8);
#126=IFCEXTRUDEDAREASOLID(#124,#125,#7,3.0000);
#127=IFCSHAPEREPRESENTATION(#10,'Body','SweptSolid',(#126));
#128=IFCPRODUCTDEFINITIONSHAPE($,$,(#127));
#129=IFCWALLSTANDARDCASE('0000000000000000000000',#5,'Wall North 2',$,$,#121,#128,$);
#130=IFCCARTESIANPOINT((0.0000,0.0000,3.0000));
#131=IFCAXIS2PLACEMENT3D(#130,#7,#8);
#132=IFCLOCALPLACEMENT(#101,#131);
#133=IFCCARTESIANPOINT((0.,0.));
#134=IFCAXIS2PLACEMENT2D(#133,$);
#135=IFCRECTANGLEPROFILEDEF(.AREA.,$,#134,20.0000,0.2300);
#136=IFCAXIS2PLACEMENT3D(#130,#7,#8);
#137=IFCEXTRUDEDAREASOLID(#135,#136,#7,3.0000);
#138=IFCSHAPEREPRESENTATION(#10,'Body','SweptSolid',(#137));
#139=IFCPRODUCTDEFINITIONSHAPE($,$,(#138));
#140=IFCWALLSTANDARDCASE('0000000000000000000000',#5,'Wall South 2',$,$,#132,#139,$);
#141=IFCCARTESIANPOINT((19.7700,0.0000,3.0000));
#142=IFCAXIS2PLACEMENT3D(#141,#7,#8);
#143=IFCLOCALPLACEMENT(#101,#142);
#144=IFCCARTESIANPOINT((0.,0.));
#145=IFCAXIS2PLACEMENT2D(#144,$);
#146=IFCRECTANGLEPROFILEDEF(.AREA.,$,#145,0.2300,30.0000);
#147=IFCAXIS2PLACEMENT3D(#141,#7,#8);
#148=IFCEXTRUDEDAREASOLID(#146,#147,#7,3.0000);
#149=IFCSHAPEREPRESENTATION(#10,'Body','SweptSolid',(#148));
#150=IFCPRODUCTDEFINITIONSHAPE($,$,(#149));
#151=IFCWALLSTANDARDCASE('0000000000000000000000',#5,'Wall East 2',$,$,#143,#150,$);
#152=IFCCARTESIANPOINT((0.0000,0.0000,3.0000));
#153=IFCAXIS2PLACEMENT3D(#152,#7,#8);
#154=IFCLOCALPLACEMENT(#101,#153);
#155=IFCCARTESIANPOINT((0.,0.));
#156=IFCAXIS2PLACEMENT2D(#155,$);
#157=IFCRECTANGLEPROFILEDEF(.AREA.,$,#156,0.2300,30.0000);
#158=IFCAXIS2PLACEMENT3D(#152,#7,#8);
#159=IFCEXTRUDEDAREASOLID(#157,#158,#7,3.0000);
#160=IFCSHAPEREPRESENTATION(#10,'Body','SweptSolid',(#159));
#161=IFCPRODUCTDEFINITIONSHAPE($,$,(#160));
#162=IFCWALLSTANDARDCASE('0000000000000000000000',#5,'Wall West 2',$,$,#154,#161,$);
#163=IFCCARTESIANPOINT((9.5500,0.0000,3.0000));
#164=IFCAXIS2PLACEMENT3D(#163,#7,#8);
#165=IFCLOCALPLACEMENT(#101,#164);
#166=IFCCARTESIANPOINT((0.,0.));
#167=IFCAXIS2PLACEMENT2D(#166,$);
#168=IFCRECTANGLEPROFILEDEF(.AREA.,$,#167,0.9000,0.2300);
#169=IFCAXIS2PLACEMENT3D(#163,#7,#8);
#170=IFCEXTRUDEDAREASOLID(#168,#169,#7,2.1000);
#171=IFCSHAPEREPRESENTATION(#10,'Body','SweptSolid',(#170));
#172=IFCPRODUCTDEFINITIONSHAPE($,$,(#171));
#173=IFCOPENINGELEMENT('0000u00000000000000000',#5,'Door opening 2',$,$,#165,#172,$);
#174=IFCRELVOIDSELEMENT('0000000000000000000000',#5,$,$,#140,#173);
#175=IFCRELCONTAINEDINSPATIALSTRUCTURE('00u0000000000000000000',#5,$,$,(#110,#118,#129,#140,#151,#162,#173),#102);
#176=IFCCARTESIANPOINT((0.0000,0.0000,6.0000));
#177=IFCAXIS2PLACEMENT3D(#176,#7,#8);
#178=IFCLOCALPLACEMENT(#19,#177);
#179=IFCBUILDINGSTOREY('0000000000000000000000',#5,'Storey 3',$,$,#178,$,$,.ELEMENT.,6.0000);
#180=IFCCARTESIANPOINT((0.,0.));
#181=IFCAXIS2PLACEMENT2D(#180,$);
#182=IFCRECTANGLEPROFILEDEF(.AREA.,$,#181,20.0000,30.0000);
#183=IFCAXIS2PLACEMENT3D(#176,#7,#8);
#184=IFCEXTRUDEDAREASOLID(#182,#183,#7,0.1500);
#185=IFCSHAPEREPRESENTATION(#10,'Body','SweptSolid',(#184));
#186=IFCPRODUCTDEFINITIONSHAPE($,$,(#185));
#187=IFCSLAB('0000000000000000000000',#5,'Slab 3',$,$,#178,#186,$,.FLOOR.);
#188=IFCCARTESIANPOINT((0.,0.));
#189=IFCAXIS2PLACEMENT2D(#188,$);
#190=IFCRECTANGLEPROFILEDEF(.AREA.,$,#189,20.0000,30.0000);
#191=IFCAXIS2PLACEMENT3D(#176,#7,#8);
#192=IFCEXTRUDEDAREASOLID(#190,#191,#7,3.0000);
#193=IFCSHAPEREPRESENTATION(#10,'Body','SweptSolid',(#192));
#194=IFCPRODUCTDEFINITIONSHAPE($,$,(#193));
#195=IFCSPACE('0000000000000000000000',#5,'Space 3',$,$,#178,#194,$,.ELEMENT.,.INTERNAL.,$);
#196=IFCCARTESIANPOINT((0.0000,29.7700,6.0000));
#197=IFCAXIS2PLACEMENT3D(#196,#7,#8);
#198=IFCLOCALPLACEMENT(#178,#197);
#199=IFCCARTESIANPOINT((0.,0.));
#200=IFCAXIS2PLACEMENT2D(#199,$);
#201=IFCRECTANGLEPROFILEDEF(.AREA.,$,#200,20.0000,0.2300);
#202=IFCAXIS2PLACEMENT3D(#196,#7,#8);
#203=IFCEXTRUDEDAREASOLID(#201,#202,#7,3.0000);
#204=IFCSHAPEREPRESENTATION(#10,'Body','SweptSolid',(#203));
#205=IFCPRODUCTDEFINITIONSHAPE($,$,(#204));
#206=IFCWALLSTANDARDCASE('000000000000u000000000',#5,'Wall North 3',$,$,#198,#205,$);
#207=IFCCARTESIANPOINT((0.0000,0.0000,6.0000));
#208=IFCAXIS2PLACEMENT3D(#207,#7,#8);
#209=IFCLOCALPLACEMENT(#178,#208);
#210=IFCCARTESIANPOINT((0.,0.));
#211=IFCAXIS2PLACEMENT2D(#210,$);
#212=IFCRECTANGLEPROFILEDEF(.AREA.,$,#211,20.0000,0.2300);
#213=IFCAXIS2PLACEMENT3D(#207,#7,#8);
#214=IFCEXTRUDEDAREASOLID(#212,#213,#7,3.0000);
#215=IFCSHAPEREPRESENTATION(#10,'Body','SweptSolid',(#214));
#216=IFCPRODUCTDEFINITIONSHAPE($,$,(#215));
#217=IFCWALLSTANDARDCASE('0000000000000000000000',#5,'Wall South 3',$,$,#209,#216,$);
#218=IFCCARTESIANPOINT((19.7700,0.0000,6.0000));
#219=IFCAXIS2PLACEMENT3D(#218,#7,#8);
#220=IFCLOCALPLACEMENT(#178,#219);
#221=IFCCARTESIANPOINT((0.,0.));
#222=IFCAXIS2PLACEMENT2D(#221,$);
#223=IFCRECTANGLEPROFILEDEF(.AREA.,$,#222,0.2300,30.0000);
#224=IFCAXIS2PLACEMENT3D(#218,#7,#8);
#225=IFCEXTRUDEDAREASOLID(#223,#224,#7,3.0000);
#226=IFCSHAPEREPRESENTATION(#10,'Body','SweptSolid',(#225));
#227=IFCPRODUCTDEFINITIONSHAPE($,$,(#226));
#228=IFCWALLSTANDARDCASE('0000000000000000000000',#5,'Wall East 3',$,$,#220,#227,$);
#229=IFCCARTESIANPOINT((0.0000,0.0000,6.0000));
#230=IFCAXIS2PLACEMENT3D(#229,#7,#8);
#231=IFCLOCALPLACEMENT(#178,#230);
#232=IFCCARTESIANPOINT((0.,0.));
#233=IFCAXIS2PLACEMENT2D(#232,$);
#234=IFCRECTANGLEPROFILEDEF(.AREA.,$,#233,0.2300,30.0000);
#235=IFCAXIS2PLACEMENT3D(#229,#7,#8);
#236=IFCEXTRUDEDAREASOLID(#234,#235,#7,3.0000);
#237=IFCSHAPEREPRESENTATION(#10,'Body','SweptSolid',(#236));
#238=IFCPRODUCTDEFINITIONSHAPE($,$,(#237));
#239=IFCWALLSTANDARDCASE('00000000000000000u0000',#5,'Wall West 3',$,$,#231,#238,$);
#240=IFCCARTESIANPOINT((9.5500,0.0000,6.0000));
#241=IFCAXIS2PLACEMENT3D(#240,#7,#8);
#242=IFCLOCALPLACEMENT(#178,#241);
#243=IFCCARTESIANPOINT((0.,0.));
#244=IFCAXIS2PLACEMENT2D(#243,$);
#245=IFCRECTANGLEPROFILEDEF(.AREA.,$,#244,0.9000,0.2300);
#246=IFCAXIS2PLACEMENT3D(#240,#7,#8);
#247=IFCEXTRUDEDAREASOLID(#245,#246,#7,2.1000);
#248=IFCSHAPEREPRESENTATION(#10,'Body','SweptSolid',(#247));
#249=IFCPRODUCTDEFINITIONSHAPE($,$,(#248));
#250=IFCOPENINGELEMENT('000000000000000000000u',#5,'Door opening 3',$,$,#242,#249,$);
#251=IFCRELVOIDSELEMENT('0000000000000000000000',#5,$,$,#217,#250);
#252=IFCRELCONTAINEDINSPATIALSTRUCTURE('0000000000000000000000',#5,$,$,(#187,#195,#206,#217,#228,#239,#250),#179);
#253=IFCRELAGGREGATES('0000000000000000000000',#5,$,$,#20,(#25,#102,#179));
ENDSEC;
END-ISO-10303-21;
